<svg xmlns="http://www.w3.org/2000/svg" width="1500" height="760" viewBox="0 0 1500 760">
<rect width="100%" height="100%" fill="#fbfaf6"/>
<text x="750" y="48" text-anchor="middle" font-family="Georgia" font-size="30" fill="#1f2933">Figure 1. P1 Computational Workflow</text>
<text x="750" y="78" text-anchor="middle" font-family="Arial" font-size="15" fill="#52606d">Competitive alignment separates exogenous retroviruses from HERV/LINE1 background</text>
<rect x="60" y="110" width="190" height="170" rx="18" fill="#ffffff" stroke="#bcccdc" stroke-width="2"/>
<text x="155" y="142" text-anchor="middle" font-family="Arial" font-size="17" font-weight="700" fill="#102a43">Data inputs</text>
<text x="155" y="178" text-anchor="middle" font-family="Arial" font-size="13" fill="#334e68">Targeted HTLV TCL FASTQ</text>
<text x="155" y="202" text-anchor="middle" font-family="Arial" font-size="13" fill="#334e68">WGS HIV+/HL FASTQ</text>
<line x1="255" y1="195" x2="292" y2="195" stroke="#486581" stroke-width="2"/>
<polygon points="292,195 280,188 280,202" fill="#486581"/>
<rect x="300" y="110" width="190" height="170" rx="18" fill="#ffffff" stroke="#bcccdc" stroke-width="2"/>
<text x="395" y="142" text-anchor="middle" font-family="Arial" font-size="17" font-weight="700" fill="#102a43">Manifest + QC</text>
<text x="395" y="178" text-anchor="middle" font-family="Arial" font-size="13" fill="#334e68">prepare_shuyu_benchmark.py</text>
<text x="395" y="202" text-anchor="middle" font-family="Arial" font-size="13" fill="#334e68">qc_shuyu_manifest.py</text>
<line x1="495" y1="195" x2="532" y2="195" stroke="#486581" stroke-width="2"/>
<polygon points="532,195 520,188 520,202" fill="#486581"/>
<rect x="540" y="110" width="190" height="170" rx="18" fill="#ffffff" stroke="#bcccdc" stroke-width="2"/>
<text x="635" y="142" text-anchor="middle" font-family="Arial" font-size="17" font-weight="700" fill="#102a43">Competitive reference</text>
<text x="635" y="178" text-anchor="middle" font-family="Arial" font-size="13" fill="#334e68">hg38 + RefSeq retroviruses</text>
<text x="635" y="202" text-anchor="middle" font-family="Arial" font-size="13" fill="#334e68">HERV/LINE1 decoys</text>
<text x="635" y="226" text-anchor="middle" font-family="Arial" font-size="13" fill="#334e68">bwa index</text>
<line x1="735" y1="195" x2="772" y2="195" stroke="#486581" stroke-width="2"/>
<polygon points="772,195 760,188 760,202" fill="#486581"/>
<rect x="780" y="110" width="190" height="170" rx="18" fill="#ffffff" stroke="#bcccdc" stroke-width="2"/>
<text x="875" y="142" text-anchor="middle" font-family="Arial" font-size="17" font-weight="700" fill="#102a43">Alignment</text>
<text x="875" y="178" text-anchor="middle" font-family="Arial" font-size="13" fill="#334e68">run_retro_pilot_alignment.py</text>
<text x="875" y="202" text-anchor="middle" font-family="Arial" font-size="13" fill="#334e68">bwa mem | samtools sort</text>
<text x="875" y="226" text-anchor="middle" font-family="Arial" font-size="13" fill="#334e68">--full-input --jobs</text>
<line x1="975" y1="195" x2="1012" y2="195" stroke="#486581" stroke-width="2"/>
<polygon points="1012,195 1000,188 1000,202" fill="#486581"/>
<rect x="1020" y="110" width="190" height="170" rx="18" fill="#ffffff" stroke="#bcccdc" stroke-width="2"/>
<text x="1115" y="142" text-anchor="middle" font-family="Arial" font-size="17" font-weight="700" fill="#102a43">Filtering + counting</text>
<text x="1115" y="178" text-anchor="middle" font-family="Arial" font-size="13" fill="#334e68">human MAPQ &gt;= 60; viral &gt;= 40</text>
<text x="1115" y="202" text-anchor="middle" font-family="Arial" font-size="13" fill="#334e68">aligned length &gt;= 60 bp</text>
<text x="1115" y="226" text-anchor="middle" font-family="Arial" font-size="13" fill="#334e68">unique-best + coordinate dedup</text>
<line x1="1215" y1="195" x2="1252" y2="195" stroke="#486581" stroke-width="2"/>
<polygon points="1252,195 1240,188 1240,202" fill="#486581"/>
<rect x="1260" y="110" width="190" height="170" rx="18" fill="#ffffff" stroke="#bcccdc" stroke-width="2"/>
<text x="1355" y="142" text-anchor="middle" font-family="Arial" font-size="17" font-weight="700" fill="#102a43">Results + figures</text>
<text x="1355" y="178" text-anchor="middle" font-family="Arial" font-size="13" fill="#334e68">summarize_*.py</text>
<text x="1355" y="202" text-anchor="middle" font-family="Arial" font-size="13" fill="#334e68">audit_filtered_alignments.py</text>
<text x="1355" y="226" text-anchor="middle" font-family="Arial" font-size="13" fill="#334e68">plot_p1_figures.py</text>
<rect x="120" y="360" width="1260" height="70" rx="14" fill="#f0f4f8" stroke="#d9e2ec"/>
<text x="150" y="388" font-family="Arial" font-size="17" font-weight="700" fill="#102a43">Targeted HTLV</text>
<text x="150" y="412" font-family="Arial" font-size="14" fill="#334e68">Full-input targeted sequencing; evaluate HTLV1 sensitivity after stringent human competition</text>
<rect x="120" y="455" width="1260" height="70" rx="14" fill="#f0f4f8" stroke="#d9e2ec"/>
<text x="150" y="483" font-family="Arial" font-size="17" font-weight="700" fill="#102a43">Full WGS HIV/HL</text>
<text x="150" y="507" font-family="Arial" font-size="14" fill="#334e68">Full-input WGS; HIV-labeled cases test sensitivity and HL samples test false-positive suppression</text>
<rect x="120" y="550" width="1260" height="70" rx="14" fill="#f0f4f8" stroke="#d9e2ec"/>
<text x="150" y="578" font-family="Arial" font-size="17" font-weight="700" fill="#102a43">Audit rule</text>
<text x="150" y="602" font-family="Arial" font-size="14" fill="#334e68">Review every nonzero exogenous-virus call using compact alignment metadata; do not export sequences or qualities</text>
</svg>
